<?xml version="1.0" standalone="no"?>
<!DOCTYPE svg PUBLIC "-//W3C//DTD SVG 20010904//EN"
 "http://www.w3.org/TR/2001/REC-SVG-20010904/DTD/svg10.dtd">
<svg version="1.0" xmlns="http://www.w3.org/2000/svg"
 width="520.000000pt" height="520.000000pt" viewBox="0 0 520.000000 520.000000"
 preserveAspectRatio="xMidYMid meet">
<metadata>
Created by potrace 1.14, written by Peter Selinger 2001-2017
</metadata>
<g transform="translate(0.000000,520.000000) scale(0.100000,-0.100000)"
fill="#000000" stroke="none">
<path d="M2900 4080 c-8 -5 -67 -34 -130 -64 -113 -53 -235 -121 -315 -176
-22 -15 -89 -57 -150 -94 -126 -76 -186 -123 -164 -129 8 -3 67 -12 133 -20
65 -9 125 -22 133 -29 21 -17 12 -60 -47 -242 -27 -83 -54 -171 -60 -196 -7
-25 -29 -90 -50 -145 -43 -113 -179 -519 -215 -640 -13 -44 -49 -152 -80 -240
-31 -88 -63 -180 -72 -205 -8 -25 -26 -79 -38 -120 -13 -41 -42 -127 -65 -190
-76 -208 -141 -423 -132 -432 6 -6 288 -9 692 -8 735 1 692 -2 765 53 156 116
247 186 281 216 22 20 79 69 127 110 47 41 84 78 81 83 -4 5 -266 8 -630 7
-344 -1 -627 1 -630 4 -11 11 28 151 128 457 121 369 193 587 246 740 66 190
200 611 217 680 9 36 47 159 86 274 68 206 69 209 53 242 -9 19 -29 43 -44 54
-29 21 -93 26 -120 10z"/>
</g>
</svg>
